<svg width="28" height="28" viewBox="0 0 28 28" fill="none" xmlns="http://www.w3.org/2000/svg">
<path d="M25.6656 12.8333C25.655 9.19998 25.5401 7.27378 24.2998 6.0335C22.933 4.66667 20.733 4.66667 16.3333 4.66667H11.6666C7.26687 4.66667 5.06699 4.66667 3.70014 6.0335C2.33331 7.40034 2.33331 9.60022 2.33331 14C2.33331 18.3997 2.33331 20.5997 3.70014 21.9665C5.06699 23.3333 7.26687 23.3333 11.6666 23.3333H13.4166" stroke="#A0A3AD" stroke-width="1.75" stroke-linecap="round"/>
<path d="M18.0833 16.3333V23.3333M18.0833 23.3333L20.4167 21M18.0833 23.3333L15.75 21M23.3333 23.3333V16.3333M23.3333 16.3333L25.6667 18.6667M23.3333 16.3333L21 18.6667" stroke="#A0A3AD" stroke-width="1.75" stroke-linecap="round" stroke-linejoin="round"/>
<path d="M11.6667 18.6667H7" stroke="#A0A3AD" stroke-width="1.75" stroke-linecap="round"/>
<path d="M2.33331 11.6667H25.6666" stroke="#A0A3AD" stroke-width="1.75" stroke-linecap="round"/>
</svg>
