<svg width="24" height="24" viewBox="0 0 24 24" fill="none" xmlns="http://www.w3.org/2000/svg">
<path fill-rule="evenodd" clip-rule="evenodd" d="M9.52126 10.0805H6.7987C6.39921 10.0772 6.01477 10.2328 5.72996 10.5129C5.44513 10.793 5.28327 11.1748 5.27998 11.5743V17.2277C5.28737 18.0592 5.96718 18.7275 6.7987 18.7205H9.52126C9.92071 18.7239 10.3052 18.5683 10.59 18.2882C10.8749 18.0081 11.0367 17.6263 11.04 17.2267V11.5743C11.0367 11.1748 10.8749 10.793 10.59 10.5129C10.3052 10.2328 9.92071 10.0772 9.52126 10.0805Z" stroke="white" stroke-width="0.96" stroke-linecap="round" stroke-linejoin="round"/>
<path fill-rule="evenodd" clip-rule="evenodd" d="M9.52126 4.32059H6.7987C5.98391 4.29799 5.30454 4.93913 5.27998 5.75387V6.72731C5.30454 7.54205 5.98391 8.1832 6.7987 8.16059H9.52126C10.336 8.1832 11.0154 7.54205 11.04 6.72731V5.75387C11.0154 4.93913 10.336 4.29799 9.52126 4.32059Z" stroke="white" stroke-width="0.96" stroke-linecap="round" stroke-linejoin="round"/>
<path fill-rule="evenodd" clip-rule="evenodd" d="M14.4788 12.9607H17.2004C17.6 12.9642 17.9847 12.8088 18.2697 12.5287C18.5547 12.2485 18.7168 11.8666 18.72 11.4669V5.8144C18.7168 5.41492 18.5549 5.03311 18.2701 4.75298C17.9853 4.47284 17.6008 4.31732 17.2013 4.32064H14.4788C14.0793 4.31732 13.6948 4.47284 13.41 4.75298C13.1252 5.03311 12.9633 5.41492 12.96 5.8144V11.4669C12.9633 11.8664 13.1252 12.2482 13.41 12.5283C13.6948 12.8084 14.0793 12.9639 14.4788 12.9607Z" stroke="white" stroke-width="0.96" stroke-linecap="round" stroke-linejoin="round"/>
<path fill-rule="evenodd" clip-rule="evenodd" d="M14.4788 18.7206H17.2004C18.0155 18.7437 18.6955 18.1024 18.72 17.2873V16.3139C18.6955 15.4991 18.0161 14.858 17.2013 14.8806H14.4788C13.664 14.858 12.9846 15.4991 12.96 16.3139V17.2863C12.984 18.1015 13.6636 18.7431 14.4788 18.7206Z" stroke="white" stroke-width="0.96" stroke-linecap="round" stroke-linejoin="round"/>
</svg>
