<svg width="24" height="24" viewBox="0 0 24 24" fill="none" xmlns="http://www.w3.org/2000/svg">
<path d="M12 6.99998V14M12 14L15 11M12 14L9 11" stroke="#A0A3AD" stroke-width="1.5" stroke-linecap="round" stroke-linejoin="round"/>
<path d="M16.0001 17H12.0001H8.00008" stroke="#A0A3AD" stroke-width="1.5" stroke-linecap="round"/>
<path d="M2.00008 12C2.00008 7.28597 2.00008 4.92895 3.46455 3.46449C4.92901 2.00002 7.28603 2.00002 12.0001 2.00002C16.7141 2.00002 19.0712 2.00002 20.5356 3.46449C22.0001 4.92895 22.0001 7.28597 22.0001 12C22.0001 16.714 22.0001 19.0711 20.5356 20.5355C19.0712 22 16.7141 22 12.0001 22C7.28603 22 4.92901 22 3.46455 20.5355C2.00008 19.0711 2.00008 16.714 2.00008 12Z" stroke="#A0A3AD" stroke-width="1.5"/>
</svg>
