<svg width="24" height="24" viewBox="0 0 24 24" fill="none" xmlns="http://www.w3.org/2000/svg">
<path fill-rule="evenodd" clip-rule="evenodd" d="M15.0402 4.0513C16.0502 4.4533 16.3592 5.8533 16.7722 6.3033C17.1852 6.7533 17.7762 6.9063 18.1032 6.9063C19.8412 6.9063 21.2502 8.3153 21.2502 10.0523V15.8473C21.2502 18.1773 19.3602 20.0673 17.0302 20.0673H6.97018C4.63918 20.0673 2.75018 18.1773 2.75018 15.8473V10.0523C2.75018 8.3153 4.15918 6.9063 5.89718 6.9063C6.22318 6.9063 6.81418 6.7533 7.22818 6.3033C7.64118 5.8533 7.94918 4.4533 8.95918 4.0513C9.97018 3.6493 14.0302 3.6493 15.0402 4.0513Z" stroke="#22CAB8" stroke-width="1.5" stroke-linecap="round" stroke-linejoin="round"/>
<path d="M17.4955 9.5H17.5045" stroke="#22CAB8" stroke-width="2" stroke-linecap="round" stroke-linejoin="round"/>
<path fill-rule="evenodd" clip-rule="evenodd" d="M15.1789 13.128C15.1789 11.372 13.7559 9.94901 11.9999 9.94901C10.2439 9.94901 8.82086 11.372 8.82086 13.128C8.82086 14.884 10.2439 16.307 11.9999 16.307C13.7559 16.307 15.1789 14.884 15.1789 13.128Z" stroke="#22CAB8" stroke-width="1.5" stroke-linecap="round" stroke-linejoin="round"/>
</svg>
