<svg width="25" height="25" viewBox="0 0 25 25" fill="none" xmlns="http://www.w3.org/2000/svg">
<path d="M2.08331 14.5833C2.08331 10.655 2.08331 8.69078 3.3037 7.47039C4.52409 6.25 6.48827 6.25 10.4166 6.25H14.5833C18.5116 6.25 20.4759 6.25 21.6962 7.47039C22.9166 8.69078 22.9166 10.655 22.9166 14.5833C22.9166 18.5117 22.9166 20.4759 21.6962 21.6962C20.4759 22.9167 18.5116 22.9167 14.5833 22.9167H10.4166C6.48827 22.9167 4.52409 22.9167 3.3037 21.6962C2.08331 20.4759 2.08331 18.5117 2.08331 14.5833Z" stroke="#A0A3AD" stroke-width="1.5625"/>
<path d="M16.6666 6.24999C16.6666 4.2858 16.6666 3.30371 16.0564 2.69352C15.4462 2.08332 14.4641 2.08332 12.5 2.08332C10.5358 2.08332 9.5537 2.08332 8.94351 2.69352C8.33331 3.30371 8.33331 4.2858 8.33331 6.24999" stroke="#A0A3AD" stroke-width="1.5625"/>
<path d="M14.0625 14.5833H10.9375M12.5 13.0208V16.1458" stroke="#A0A3AD" stroke-width="1.5625" stroke-linecap="round"/>
<path d="M12.5 18.75C14.8012 18.75 16.6666 16.8845 16.6666 14.5833C16.6666 12.2822 14.8012 10.4167 12.5 10.4167C10.1988 10.4167 8.33331 12.2822 8.33331 14.5833C8.33331 16.8845 10.1988 18.75 12.5 18.75Z" stroke="#A0A3AD" stroke-width="1.5625"/>
</svg>
