<svg width="17" height="17" viewBox="0 0 17 17" fill="none" xmlns="http://www.w3.org/2000/svg">
<g clip-path="url(#clip0_1_191)">
<path fill-rule="evenodd" clip-rule="evenodd" d="M0.885376 8.50002C0.885376 4.2946 4.29454 0.885438 8.49996 0.885438C8.79335 0.885438 9.03121 1.12329 9.03121 1.41669C9.03121 1.71009 8.79335 1.94794 8.49996 1.94794C4.88135 1.94794 1.94788 4.88141 1.94788 8.50002C1.94788 12.1186 4.88135 15.0521 8.49996 15.0521C12.1186 15.0521 15.052 12.1186 15.052 8.50002C15.052 8.20663 15.2899 7.96877 15.5833 7.96877C15.8767 7.96877 16.1145 8.20663 16.1145 8.50002C16.1145 12.7055 12.7054 16.1146 8.49996 16.1146C4.29454 16.1146 0.885376 12.7055 0.885376 8.50002ZM11.8791 1.61212C12.848 0.643208 14.4189 0.643208 15.3879 1.61212C16.3568 2.58105 16.3568 4.15197 15.3879 5.1209L10.6788 9.82999C10.4158 10.093 10.251 10.2578 10.0672 10.4012C9.85068 10.5701 9.61636 10.7148 9.36845 10.833C9.158 10.9333 8.93693 11.007 8.58411 11.1245L6.52673 11.8103C6.14688 11.9369 5.72811 11.8381 5.445 11.555C5.16188 11.2719 5.06302 10.8531 5.18963 10.4732L5.87542 8.41587C5.99302 8.06305 6.06669 7.84198 6.16699 7.63153C6.28514 7.38362 6.42993 7.1493 6.59883 6.93278C6.74222 6.74893 6.90699 6.58418 7.16999 6.32119L11.8791 1.61212ZM14.6365 2.36343C14.0825 1.80944 13.1844 1.80944 12.6304 2.36343L12.3636 2.6302C12.3797 2.69811 12.4022 2.779 12.4335 2.86924C12.535 3.16182 12.7271 3.54715 13.09 3.91001C13.4528 4.27288 13.8382 4.46497 14.1307 4.56648C14.221 4.59779 14.3018 4.62029 14.3698 4.63637L14.6365 4.36959C15.1905 3.81561 15.1905 2.91741 14.6365 2.36343ZM13.5327 5.47338C13.1673 5.3162 12.7416 5.06422 12.3386 4.66131C11.9357 4.25841 11.6838 3.83269 11.5266 3.46721L7.94569 7.04812C7.65067 7.34317 7.53493 7.46019 7.43661 7.5862C7.3152 7.74189 7.21108 7.9104 7.12615 8.08862C7.05735 8.23298 7.00444 8.38874 6.87249 8.78456L6.56657 9.70235L7.29763 10.4334L8.21542 10.1275C8.61124 9.99553 8.767 9.94261 8.91136 9.87383C9.08958 9.7889 9.25809 9.68478 9.41378 9.56337C9.53979 9.46505 9.65681 9.34931 9.95183 9.05429L13.5327 5.47338Z" fill="white"/>
</g>
<defs>
<clipPath id="clip0_1_191">
<rect width="17" height="17" fill="white"/>
</clipPath>
</defs>
</svg>
