<svg width="17" height="17" viewBox="0 0 17 17" fill="none" xmlns="http://www.w3.org/2000/svg">
<g clip-path="url(#clip0_1_58)">
<path fill-rule="evenodd" clip-rule="evenodd" d="M0.885429 8.50002C0.885429 4.2946 4.2946 0.885438 8.50001 0.885438C8.7934 0.885438 9.03126 1.12329 9.03126 1.41669C9.03126 1.71009 8.7934 1.94794 8.50001 1.94794C4.8814 1.94794 1.94793 4.88141 1.94793 8.50002C1.94793 12.1186 4.8814 15.0521 8.50001 15.0521C12.1186 15.0521 15.0521 12.1186 15.0521 8.50002C15.0521 8.20663 15.29 7.96877 15.5833 7.96877C15.8767 7.96877 16.1146 8.20663 16.1146 8.50002C16.1146 12.7055 12.7055 16.1146 8.50001 16.1146C4.2946 16.1146 0.885429 12.7055 0.885429 8.50002ZM11.8791 1.61212C12.848 0.643208 14.419 0.643208 15.3879 1.61212C16.3568 2.58105 16.3568 4.15197 15.3879 5.1209L10.6788 9.82999C10.4158 10.093 10.2511 10.2578 10.0673 10.4012C9.85073 10.5701 9.61642 10.7148 9.3685 10.833C9.15805 10.9333 8.93698 11.007 8.58416 11.1245L6.52678 11.8103C6.14694 11.9369 5.72816 11.8381 5.44505 11.555C5.16194 11.2719 5.06307 10.8531 5.18969 10.4732L5.87548 8.41587C5.99307 8.06305 6.06674 7.84198 6.16705 7.63153C6.28519 7.38362 6.42999 7.1493 6.59888 6.93278C6.74228 6.74893 6.90704 6.58418 7.17005 6.32119L11.8791 1.61212ZM14.6366 2.36343C14.0826 1.80944 13.1844 1.80944 12.6304 2.36343L12.3637 2.6302C12.3798 2.69811 12.4022 2.779 12.4335 2.86924C12.535 3.16182 12.7271 3.54715 13.09 3.91001C13.4529 4.27288 13.8382 4.46497 14.1308 4.56648C14.221 4.59779 14.3019 4.62029 14.3698 4.63637L14.6366 4.36959C15.1906 3.81561 15.1906 2.91741 14.6366 2.36343ZM13.5328 5.47338C13.1674 5.3162 12.7417 5.06422 12.3387 4.66131C11.9358 4.25841 11.6838 3.83269 11.5267 3.46721L7.94574 7.04812C7.65072 7.34317 7.53498 7.46019 7.43666 7.5862C7.31525 7.74189 7.21113 7.9104 7.1262 8.08862C7.0574 8.23298 7.00449 8.38874 6.87255 8.78456L6.56662 9.70235L7.29769 10.4334L8.21548 10.1275C8.61129 9.99553 8.76705 9.94261 8.91141 9.87383C9.08963 9.7889 9.25814 9.68478 9.41383 9.56337C9.53985 9.46505 9.65686 9.34931 9.95188 9.05429L13.5328 5.47338Z" fill="white"/>
</g>
<defs>
<clipPath id="clip0_1_58">
<rect width="17" height="17" fill="white"/>
</clipPath>
</defs>
</svg>
