<svg width="18" height="18" viewBox="0 0 18 18" fill="none" xmlns="http://www.w3.org/2000/svg">
<path d="M9.12037 8.1525C9.04537 8.145 8.95537 8.145 8.87287 8.1525C7.08791 8.0925 5.67041 6.63 5.67041 4.83C5.67041 2.9925 7.15541 1.5 9.00037 1.5C10.8379 1.5 12.3304 2.9925 12.3304 4.83C12.3229 6.63 10.9054 8.0925 9.12037 8.1525Z" stroke="white" stroke-width="1.125" stroke-linecap="round" stroke-linejoin="round"/>
<path d="M5.37053 10.92C3.55553 12.135 3.55553 14.115 5.37053 15.3225C7.43303 16.7025 10.8155 16.7025 12.878 15.3225C14.693 14.1075 14.693 12.1275 12.878 10.92C10.823 9.5475 7.44053 9.5475 5.37053 10.92Z" stroke="white" stroke-width="1.125" stroke-linecap="round" stroke-linejoin="round"/>
</svg>
