<svg width="20" height="20" viewBox="0 0 20 20" fill="none" xmlns="http://www.w3.org/2000/svg">
<path fill-rule="evenodd" clip-rule="evenodd" d="M10 1.04166C7.81388 1.04166 6.04167 2.81386 6.04167 4.99999C6.04167 7.18611 7.81388 8.95832 10 8.95832C12.1862 8.95832 13.9583 7.18611 13.9583 4.99999C13.9583 2.81386 12.1862 1.04166 10 1.04166ZM7.29167 4.99999C7.29167 3.50421 8.50425 2.29166 10 2.29166C11.4958 2.29166 12.7083 3.50421 12.7083 4.99999C12.7083 6.49576 11.4958 7.70832 10 7.70832C8.50425 7.70832 7.29167 6.49576 7.29167 4.99999Z" fill="white"/>
<path fill-rule="evenodd" clip-rule="evenodd" d="M10 10.2083C8.30056 10.2083 6.73127 10.6007 5.56513 11.267C4.41667 11.9233 3.54167 12.9251 3.54167 14.1667C3.54167 15.4083 4.41667 16.4101 5.56513 17.0663C6.73127 17.7327 8.30056 18.125 10 18.125C11.6994 18.125 13.2688 17.7327 14.4349 17.0663C15.5833 16.4101 16.4583 15.4083 16.4583 14.1667C16.4583 12.9251 15.5833 11.9233 14.4349 11.267C13.2688 10.6007 11.6994 10.2083 10 10.2083ZM4.79167 14.1667C4.79167 13.5673 5.22251 12.9025 6.1853 12.3523C7.13041 11.8123 8.47775 11.4583 10 11.4583C11.5223 11.4583 12.8696 11.8123 13.8147 12.3523C14.7775 12.9025 15.2083 13.5673 15.2083 14.1667C15.2083 14.7661 14.7775 15.4308 13.8147 15.981C12.8696 16.5211 11.5223 16.875 10 16.875C8.47775 16.875 7.13041 16.5211 6.1853 15.981C5.22251 15.4308 4.79167 14.7661 4.79167 14.1667Z" fill="white"/>
</svg>
