<svg width="207" height="62" viewBox="0 0 207 62" fill="none" xmlns="http://www.w3.org/2000/svg">
<path d="M30.4559 15.2142C8.95217 15.2142 5.5 45.7457 4.5 45.7457L1 60.7457H206L196.5 34.7457L186 18.2457L174.5 10.2457L161 11C153 10 155.415 17.5 141 20.2457C130.5 22.2457 121.916 1 104.113 1C85.5983 1 90.8478 29.7752 69.2045 29.7752C46.8384 29.7752 42.3248 15.2142 30.4559 15.2142Z" fill="url(#paint0_linear_1_407)"/>
<path d="M1.5 60.2457C5 43.7457 9.54402 15.2142 30.8968 15.2142C42.6825 15.2142 47.1644 29.7752 69.3735 29.7752C90.8649 29.7752 85.6523 1 104.037 1C121.716 1 135 27.2783 147 18C184.173 -10.742 201.5 44.2457 206 60.7457" stroke="#00ADB5" stroke-width="1.70441" stroke-linecap="round"/>
<defs>
<linearGradient id="paint0_linear_1_407" x1="93.2914" y1="-50.3099" x2="93.2914" y2="88.7123" gradientUnits="userSpaceOnUse">
<stop stop-color="#00ADB5"/>
<stop offset="0.78125" stop-color="white" stop-opacity="0.52"/>
</linearGradient>
</defs>
</svg>
