<svg width="20" height="20" viewBox="0 0 20 20" fill="none" xmlns="http://www.w3.org/2000/svg">
<path fill-rule="evenodd" clip-rule="evenodd" d="M9.99996 1.04166C7.81383 1.04166 6.04163 2.81386 6.04163 4.99999C6.04163 7.18611 7.81383 8.95832 9.99996 8.95832C12.1861 8.95832 13.9583 7.18611 13.9583 4.99999C13.9583 2.81386 12.1861 1.04166 9.99996 1.04166ZM7.29163 4.99999C7.29163 3.50421 8.50421 2.29166 9.99996 2.29166C11.4957 2.29166 12.7083 3.50421 12.7083 4.99999C12.7083 6.49576 11.4957 7.70832 9.99996 7.70832C8.50421 7.70832 7.29163 6.49576 7.29163 4.99999Z" fill="white" fill-opacity="0.5"/>
<path fill-rule="evenodd" clip-rule="evenodd" d="M9.99996 10.2083C8.30052 10.2083 6.73123 10.6007 5.56508 11.267C4.41663 11.9233 3.54163 12.9251 3.54163 14.1667C3.54163 15.4083 4.41663 16.4101 5.56508 17.0663C6.73123 17.7327 8.30052 18.125 9.99996 18.125C11.6994 18.125 13.2687 17.7327 14.4349 17.0663C15.5833 16.4101 16.4583 15.4083 16.4583 14.1667C16.4583 12.9251 15.5833 11.9233 14.4349 11.267C13.2687 10.6007 11.6994 10.2083 9.99996 10.2083ZM4.79163 14.1667C4.79163 13.5673 5.22247 12.9025 6.18526 12.3523C7.13037 11.8123 8.47771 11.4583 9.99996 11.4583C11.5222 11.4583 12.8695 11.8123 13.8146 12.3523C14.7775 12.9025 15.2083 13.5673 15.2083 14.1667C15.2083 14.7661 14.7775 15.4308 13.8146 15.981C12.8695 16.5211 11.5222 16.875 9.99996 16.875C8.47771 16.875 7.13037 16.5211 6.18526 15.981C5.22247 15.4308 4.79163 14.7661 4.79163 14.1667Z" fill="white" fill-opacity="0.5"/>
</svg>
